<svg width="486" height="511" viewBox="0 0 486 511" fill="none" xmlns="http://www.w3.org/2000/svg">
<g clip-path="url(#clip0_29_242)">
<path d="M348.71 57.464H482.164C484.283 57.464 486 59.1807 486 61.2983V132.071C486 134.188 484.283 135.905 482.164 135.905H348.71C346.591 135.905 344.874 134.188 344.874 132.071V61.2983C344.874 59.1807 346.591 57.464 348.71 57.464Z" fill="#FCFDFD"/>
<path d="M349.73 60.1934H481C482.412 60.1934 483.557 61.3379 483.557 62.7496V130.763C483.557 132.174 482.412 133.319 481 133.319H349.73C348.318 133.319 347.173 132.174 347.173 130.763V62.7496C347.173 61.3379 348.318 60.1934 349.73 60.1934Z" fill="white"/>
<path d="M469.012 89.1734C469.088 89.0777 469.14 88.966 469.166 88.8468C469.192 88.7277 469.191 88.6042 469.162 88.4857C468.47 85.5881 468.47 82.5682 469.162 79.6706C469.191 79.5521 469.192 79.4286 469.166 79.3094C469.14 79.1902 469.087 79.0786 469.011 78.9829C468.937 78.8892 468.843 78.8134 468.735 78.7615C468.628 78.7096 468.51 78.6828 468.39 78.6832H460.992C460.803 78.6836 460.62 78.7511 460.476 78.8736C460.332 78.9961 460.236 79.1658 460.205 79.3523C459.722 82.4865 459.722 85.6762 460.205 88.8104C460.236 88.9969 460.332 89.1666 460.476 89.2891C460.62 89.4116 460.803 89.4791 460.992 89.4795H468.391C468.511 89.4791 468.629 89.4513 468.737 89.3983C468.844 89.3452 468.939 89.2683 469.012 89.1734Z" fill="#FCC3CD"/>
<path d="M462.419 82.6639H466.318C466.463 82.6638 466.603 82.606 466.705 82.5033C466.808 82.4007 466.866 82.2615 466.866 82.1163V81.8843C466.866 81.7391 466.808 81.5999 466.705 81.4972C466.603 81.3945 466.463 81.3368 466.318 81.3366H462.419C462.273 81.3368 462.134 81.3945 462.031 81.4972C461.929 81.5999 461.871 81.7391 461.871 81.8843V82.1169C461.871 82.262 461.929 82.401 462.032 82.5036C462.134 82.6061 462.273 82.6638 462.419 82.6639Z" fill="white"/>
<path d="M462.419 84.9537H466.318C466.463 84.9535 466.603 84.8957 466.705 84.7931C466.808 84.6904 466.866 84.5512 466.866 84.406V84.174C466.866 84.0288 466.808 83.8896 466.705 83.7869C466.603 83.6843 466.463 83.6265 466.318 83.6263H462.419C462.273 83.6265 462.134 83.6843 462.031 83.7869C461.929 83.8896 461.871 84.0288 461.871 84.174V84.4066C461.871 84.5517 461.929 84.6908 462.032 84.7933C462.134 84.8958 462.273 84.9535 462.419 84.9537Z" fill="white"/>
<path d="M355.567 68.8162H475.371C475.424 68.8162 475.474 68.7953 475.512 68.7582C475.549 68.721 475.57 68.6706 475.57 68.6181C475.57 68.5655 475.549 68.5152 475.512 68.478C475.474 68.4409 475.424 68.42 475.371 68.42H355.567C355.514 68.42 355.464 68.4409 355.427 68.478C355.389 68.5152 355.368 68.5655 355.368 68.6181C355.368 68.6706 355.389 68.721 355.427 68.7582C355.464 68.7953 355.514 68.8162 355.567 68.8162Z" fill="#3F3D56"/>
<path d="M441.509 127.338C441.561 127.338 441.612 127.318 441.649 127.28C441.686 127.243 441.707 127.193 441.707 127.14V62.0122C441.707 61.9596 441.686 61.9092 441.649 61.8721C441.612 61.8349 441.561 61.8141 441.509 61.8141C441.456 61.8141 441.406 61.8349 441.368 61.8721C441.331 61.9092 441.31 61.9596 441.31 62.0122V127.14C441.31 127.193 441.331 127.243 441.368 127.28C441.406 127.318 441.456 127.338 441.509 127.338Z" fill="#3F3D56"/>
<path d="M411.607 127.338C411.659 127.338 411.71 127.318 411.747 127.28C411.784 127.243 411.805 127.193 411.805 127.14V62.0122C411.805 61.9596 411.784 61.9092 411.747 61.8721C411.71 61.8349 411.659 61.8141 411.607 61.8141C411.554 61.8141 411.504 61.8349 411.466 61.8721C411.429 61.9092 411.408 61.9596 411.408 62.0122V127.14C411.408 127.193 411.429 127.243 411.466 127.28C411.504 127.318 411.554 127.338 411.607 127.338Z" fill="#3F3D56"/>
<path d="M381.706 127.338C381.758 127.338 381.809 127.318 381.846 127.28C381.883 127.243 381.904 127.193 381.904 127.14V62.0122C381.904 61.9596 381.883 61.9092 381.846 61.8721C381.809 61.8349 381.758 61.8141 381.706 61.8141C381.653 61.8141 381.603 61.8349 381.566 61.8721C381.529 61.9092 381.508 61.9596 381.508 62.0122V127.14C381.508 127.193 381.529 127.243 381.566 127.28C381.603 127.318 381.653 127.338 381.706 127.338Z" fill="#3F3D56"/>
<path d="M386.277 99.5433H393.512C393.748 99.5423 393.974 99.4481 394.141 99.2813C394.308 99.1145 394.402 98.8884 394.403 98.6525V90.1166C394.402 89.8806 394.308 89.6547 394.141 89.4878C393.974 89.321 393.748 89.2268 393.512 89.2258H386.277C386.041 89.2268 385.815 89.321 385.648 89.4878C385.481 89.6547 385.387 89.8806 385.386 90.1166V98.6525C385.387 98.8884 385.481 99.1145 385.648 99.2813C385.815 99.4481 386.041 99.5423 386.277 99.5433Z" fill="#090814"/>
<path d="M400.337 102.71H407.572C407.808 102.709 408.034 102.615 408.201 102.448C408.368 102.281 408.462 102.055 408.463 101.819V93.2831C408.462 93.0472 408.368 92.8212 408.201 92.6543C408.034 92.4875 407.808 92.3933 407.572 92.3923H400.337C400.101 92.3933 399.875 92.4875 399.708 92.6543C399.541 92.8212 399.447 93.0472 399.446 93.2831V101.819C399.447 102.055 399.541 102.281 399.708 102.448C399.875 102.615 400.101 102.709 400.337 102.71Z" fill="#FCFDFD"/>
<path d="M430.634 116.171H437.869C438.105 116.17 438.331 116.076 438.498 115.909C438.665 115.742 438.759 115.516 438.76 115.28V106.744C438.759 106.508 438.665 106.282 438.498 106.115C438.331 105.949 438.105 105.854 437.869 105.853H430.634C430.398 105.854 430.172 105.949 430.005 106.115C429.838 106.282 429.744 106.508 429.743 106.744V115.28C429.744 115.516 429.838 115.742 430.005 115.909C430.172 116.076 430.398 116.17 430.634 116.171Z" fill="#FCFDFD"/>
<path d="M467.269 104.888H474.504C474.74 104.887 474.966 104.793 475.133 104.626C475.3 104.459 475.394 104.233 475.395 103.997V95.461C475.394 95.2251 475.3 94.9991 475.133 94.8322C474.966 94.6654 474.74 94.5712 474.504 94.5702H467.269C467.033 94.5712 466.807 94.6654 466.64 94.8322C466.473 94.9991 466.379 95.2251 466.378 95.461V103.997C466.379 104.233 466.473 104.459 466.64 104.626C466.807 104.793 467.033 104.887 467.269 104.888Z" fill="#090814"/>
<path d="M446.873 89.2494H454.108C454.344 89.2484 454.57 89.1542 454.737 88.9874C454.904 88.8205 454.998 88.5945 454.999 88.3585V79.8227C454.998 79.5867 454.904 79.3607 454.737 79.1939C454.57 79.027 454.344 78.9328 454.108 78.9318H446.873C446.637 78.9328 446.411 79.027 446.244 79.1939C446.077 79.3607 445.983 79.5867 445.982 79.8227V88.3585C445.983 88.5945 446.077 88.8205 446.244 88.9874C446.411 89.1542 446.637 89.2484 446.873 89.2494Z" fill="#FCFDFD"/>
<path d="M452.796 65.5749H464.083C464.293 65.5749 464.495 65.4915 464.643 65.343C464.792 65.1945 464.875 64.9931 464.875 64.7831C464.875 64.5731 464.792 64.3717 464.643 64.2232C464.495 64.0747 464.293 63.9913 464.083 63.9913H452.796C452.586 63.9913 452.385 64.0747 452.236 64.2232C452.088 64.3717 452.004 64.5731 452.004 64.7831C452.004 64.9931 452.088 65.1945 452.236 65.343C452.385 65.4915 452.586 65.5749 452.796 65.5749Z" fill="#FCFDFD"/>
<path d="M420.914 65.5749H432.201C432.411 65.5749 432.613 65.4915 432.761 65.343C432.91 65.1945 432.993 64.9931 432.993 64.7831C432.993 64.5731 432.91 64.3717 432.761 64.2232C432.613 64.0747 432.411 63.9913 432.201 63.9913H420.914C420.704 63.9913 420.503 64.0747 420.354 64.2232C420.206 64.3717 420.122 64.5731 420.122 64.7831C420.122 64.9931 420.206 65.1945 420.354 65.343C420.503 65.4915 420.704 65.5749 420.914 65.5749Z" fill="#FCFDFD"/>
<path d="M391.012 65.5749H402.299C402.509 65.5749 402.711 65.4915 402.859 65.343C403.008 65.1945 403.091 64.9931 403.091 64.7831C403.091 64.5731 403.008 64.3717 402.859 64.2232C402.711 64.0747 402.509 63.9913 402.299 63.9913H391.012C390.802 63.9913 390.601 64.0747 390.452 64.2232C390.304 64.3717 390.22 64.5731 390.22 64.7831C390.22 64.9931 390.304 65.1945 390.452 65.343C390.601 65.4915 390.802 65.5749 391.012 65.5749Z" fill="#FCFDFD"/>
<path d="M363.092 65.5749H374.379C374.589 65.5749 374.79 65.4915 374.939 65.343C375.087 65.1945 375.171 64.9931 375.171 64.7831C375.171 64.5731 375.087 64.3717 374.939 64.2232C374.79 64.0747 374.589 63.9913 374.379 63.9913H363.092C362.881 63.9913 362.68 64.0747 362.531 64.2232C362.383 64.3717 362.299 64.5731 362.299 64.7831C362.299 64.9931 362.383 65.1945 362.531 65.343C362.68 65.4915 362.881 65.5749 363.092 65.5749Z" fill="#FCFDFD"/>
<path d="M355.979 87.4664H363.214C363.45 87.4654 363.676 87.3712 363.843 87.2044C364.01 87.0375 364.104 86.8115 364.105 86.5756V78.0397C364.104 77.8037 364.01 77.5777 363.843 77.4109C363.676 77.2441 363.45 77.1499 363.214 77.1489H355.979C355.743 77.1499 355.517 77.2441 355.35 77.4109C355.183 77.5777 355.089 77.8037 355.088 78.0397V86.5756C355.089 86.8115 355.183 87.0375 355.35 87.2044C355.517 87.3712 355.743 87.4654 355.979 87.4664Z" fill="#FCFDFD"/>
<path d="M361.722 102.71H368.957C369.193 102.709 369.419 102.615 369.586 102.448C369.753 102.281 369.847 102.055 369.848 101.819V93.2831C369.847 93.0472 369.753 92.8212 369.586 92.6543C369.419 92.4875 369.193 92.3933 368.957 92.3923H361.722C361.486 92.3933 361.259 92.4875 361.093 92.6543C360.926 92.8212 360.831 93.0472 360.83 93.2831V101.819C360.831 102.055 360.926 102.281 361.093 102.448C361.259 102.615 361.486 102.709 361.722 102.71Z" fill="#FCFDFD"/>
<path d="M456.503 114.191C456.578 114.095 456.631 113.983 456.657 113.864C456.683 113.745 456.681 113.621 456.652 113.503C455.96 110.605 455.96 107.585 456.652 104.688C456.681 104.569 456.683 104.446 456.657 104.327C456.631 104.207 456.578 104.096 456.502 104C456.428 103.906 456.334 103.831 456.226 103.779C456.118 103.727 456 103.7 455.881 103.7H448.482C448.293 103.701 448.11 103.768 447.966 103.891C447.822 104.013 447.727 104.183 447.696 104.369C447.213 107.504 447.213 110.693 447.696 113.828C447.727 114.014 447.822 114.184 447.966 114.306C448.11 114.429 448.293 114.496 448.482 114.497H455.881C456.001 114.496 456.12 114.468 456.227 114.415C456.335 114.362 456.429 114.285 456.503 114.191Z" fill="#FCC3CD"/>
<path d="M449.909 107.681H453.809C453.954 107.681 454.093 107.623 454.196 107.52C454.299 107.418 454.356 107.279 454.357 107.133V106.901C454.356 106.756 454.299 106.617 454.196 106.514C454.093 106.412 453.954 106.354 453.809 106.354H449.909C449.764 106.354 449.625 106.412 449.522 106.514C449.419 106.617 449.362 106.756 449.361 106.901V107.134C449.362 107.279 449.42 107.418 449.522 107.521C449.625 107.623 449.764 107.681 449.909 107.681Z" fill="white"/>
<path d="M449.909 109.971H453.809C453.954 109.971 454.093 109.913 454.196 109.81C454.299 109.708 454.356 109.568 454.357 109.423V109.191C454.356 109.046 454.299 108.907 454.196 108.804C454.093 108.701 453.954 108.644 453.809 108.643H449.909C449.764 108.644 449.625 108.701 449.522 108.804C449.419 108.907 449.362 109.046 449.361 109.191V109.424C449.362 109.569 449.42 109.708 449.522 109.81C449.625 109.913 449.764 109.971 449.909 109.971Z" fill="white"/>
<path d="M426.385 94.0826C426.461 93.9869 426.514 93.8752 426.54 93.7561C426.566 93.6369 426.564 93.5134 426.535 93.395C425.843 90.4973 425.843 87.4775 426.535 84.5798C426.564 84.4613 426.565 84.3378 426.539 84.2186C426.513 84.0995 426.46 83.9878 426.385 83.8922C426.311 83.7984 426.216 83.7227 426.109 83.6708C426.001 83.6188 425.883 83.5921 425.763 83.5925H418.365C418.176 83.5929 417.993 83.6603 417.849 83.7829C417.705 83.9054 417.609 84.075 417.579 84.2616C417.096 87.3958 417.096 90.5854 417.579 93.7196C417.609 93.9061 417.705 94.0758 417.849 94.1983C417.993 94.3209 418.176 94.3883 418.365 94.3887H425.764C425.884 94.3884 426.002 94.3606 426.11 94.3075C426.218 94.2545 426.312 94.1776 426.385 94.0826Z" fill="#FCC3CD"/>
<path d="M419.792 87.5732H423.691C423.837 87.573 423.976 87.5153 424.079 87.4126C424.181 87.3099 424.239 87.1707 424.239 87.0255V86.7935C424.239 86.6483 424.181 86.5091 424.079 86.4065C423.976 86.3038 423.837 86.246 423.691 86.2458H419.792C419.647 86.246 419.507 86.3038 419.405 86.4065C419.302 86.5091 419.244 86.6483 419.244 86.7935V87.0261C419.244 87.1712 419.302 87.3103 419.405 87.4128C419.508 87.5153 419.647 87.573 419.792 87.5732Z" fill="white"/>
<path d="M419.792 89.8629H423.691C423.837 89.8627 423.976 89.805 424.079 89.7023C424.181 89.5996 424.239 89.4604 424.239 89.3152V89.0833C424.239 88.9381 424.181 88.7989 424.079 88.6962C423.976 88.5935 423.837 88.5358 423.691 88.5356H419.792C419.647 88.5358 419.507 88.5935 419.405 88.6962C419.302 88.7989 419.244 88.9381 419.244 89.0833V89.3159C419.244 89.461 419.302 89.6 419.405 89.7025C419.508 89.8051 419.647 89.8627 419.792 89.8629Z" fill="white"/>
<path d="M405.825 84.7907C405.901 84.695 405.953 84.5833 405.979 84.4642C406.005 84.345 406.004 84.2215 405.975 84.1031C405.283 81.2054 405.283 78.1856 405.975 75.2879C406.004 75.1694 406.005 75.0459 405.979 74.9267C405.953 74.8076 405.9 74.6959 405.824 74.6003C405.75 74.5065 405.656 74.4308 405.548 74.3789C405.441 74.3269 405.323 74.3002 405.203 74.3006H397.805C397.616 74.301 397.433 74.3684 397.289 74.491C397.145 74.6135 397.049 74.7831 397.018 74.9697C396.535 78.1039 396.535 81.2935 397.018 84.4277C397.049 84.6142 397.145 84.7839 397.289 84.9064C397.433 85.029 397.616 85.0964 397.805 85.0968H405.204C405.324 85.0965 405.442 85.0687 405.55 85.0156C405.657 84.9626 405.752 84.8857 405.825 84.7907Z" fill="#FCC3CD"/>
<path d="M399.232 78.2812H403.131C403.276 78.2811 403.416 78.2233 403.518 78.1207C403.621 78.018 403.679 77.8788 403.679 77.7336V77.5016C403.679 77.3564 403.621 77.2172 403.518 77.1145C403.416 77.0118 403.276 76.9541 403.131 76.9539H399.232C399.086 76.9541 398.947 77.0118 398.844 77.1145C398.742 77.2172 398.684 77.3564 398.684 77.5016V77.7342C398.684 77.8793 398.742 78.0183 398.845 78.1209C398.947 78.2234 399.086 78.2811 399.232 78.2812Z" fill="white"/>
<path d="M399.232 80.571H403.131C403.276 80.5708 403.416 80.5131 403.518 80.4104C403.621 80.3077 403.679 80.1685 403.679 80.0233V79.7914C403.679 79.6462 403.621 79.507 403.518 79.4043C403.416 79.3016 403.276 79.2439 403.131 79.2437H399.232C399.086 79.2439 398.947 79.3016 398.844 79.4043C398.742 79.507 398.684 79.6462 398.684 79.7914V80.024C398.684 80.1691 398.742 80.3081 398.845 80.4106C398.947 80.5132 399.086 80.5708 399.232 80.571Z" fill="white"/>
<path d="M377.062 86.0292C377.137 85.9335 377.19 85.8218 377.216 85.7027C377.242 85.5835 377.24 85.46 377.211 85.3416C376.519 82.4439 376.519 79.4241 377.211 76.5264C377.24 76.4079 377.242 76.2844 377.216 76.1652C377.19 76.0461 377.137 75.9344 377.061 75.8388C376.987 75.745 376.892 75.6693 376.785 75.6173C376.677 75.5654 376.559 75.5387 376.44 75.5391H369.041C368.852 75.5395 368.669 75.6069 368.525 75.7295C368.381 75.852 368.285 76.0216 368.255 76.2082C367.772 79.3424 367.772 82.532 368.255 85.6662C368.285 85.8527 368.381 86.0224 368.525 86.1449C368.669 86.2674 368.852 86.3349 369.041 86.3353H376.44C376.56 86.335 376.679 86.3072 376.786 86.2541C376.894 86.2011 376.988 86.1241 377.062 86.0292Z" fill="#FCC3CD"/>
<path d="M370.468 79.5197H374.368C374.513 79.5196 374.652 79.4618 374.755 79.3591C374.858 79.2565 374.915 79.1173 374.916 78.9721V78.7401C374.915 78.5949 374.858 78.4557 374.755 78.353C374.652 78.2503 374.513 78.1926 374.368 78.1924H370.468C370.323 78.1926 370.184 78.2503 370.081 78.353C369.978 78.4557 369.92 78.5949 369.92 78.7401V78.9727C369.921 79.1178 369.978 79.2568 370.081 79.3594C370.184 79.4619 370.323 79.5196 370.468 79.5197Z" fill="white"/>
<path d="M370.468 81.8095H374.368C374.513 81.8093 374.652 81.7516 374.755 81.6489C374.858 81.5462 374.915 81.407 374.916 81.2618V81.0298C374.915 80.8846 374.858 80.7455 374.755 80.6428C374.652 80.5401 374.513 80.4823 374.368 80.4822H370.468C370.323 80.4823 370.184 80.5401 370.081 80.6428C369.978 80.7455 369.92 80.8846 369.92 81.0298V81.2625C369.921 81.4076 369.978 81.5466 370.081 81.6491C370.184 81.7517 370.323 81.8093 370.468 81.8095Z" fill="white"/>
<path d="M196.28 265.529C196.281 266.597 196.053 267.653 195.61 268.625C195.167 269.597 194.52 270.463 193.714 271.163C192.907 271.863 191.959 272.382 190.934 272.684C189.909 272.987 188.831 273.065 187.774 272.914C186.797 275.154 185.189 277.059 183.145 278.398C181.1 279.736 178.71 280.449 176.267 280.449C172.938 280.449 169.746 279.127 167.392 276.774C165.038 274.421 163.716 271.23 163.716 267.902V257.031C163.716 254.233 165.985 253.297 168.784 253.297H183.749C186.548 253.297 188.817 254.233 188.817 257.031V258.068C190.796 258.071 192.693 258.857 194.092 260.256C195.491 261.654 196.278 263.551 196.28 265.529ZM194.245 265.529C194.243 264.09 193.671 262.711 192.653 261.694C191.636 260.677 190.256 260.105 188.817 260.103V267.9C188.818 268.922 188.693 269.941 188.446 270.933C188.569 270.941 188.692 270.952 188.817 270.952C190.256 270.95 191.635 270.378 192.652 269.362C193.67 268.345 194.243 266.967 194.245 265.529Z" fill="#FCC3CD"/>
<path d="M176.295 256.727C171.144 256.727 166.968 256.131 166.968 255.395C166.968 254.66 171.144 254.063 176.295 254.063C181.446 254.063 185.621 254.66 185.621 255.395C185.621 256.131 181.446 256.727 176.295 256.727Z" fill="#2F2E41"/>
<path d="M196.966 478.356H211.117V497.003H196.966V478.356Z" fill="#ED9DA0"/>
<path d="M208.701 509.871H178.62C176.033 509.867 173.481 509.285 171.148 508.168L165.603 505.505C164.992 505.211 164.486 504.738 164.151 504.149C163.816 503.56 163.669 502.883 163.73 502.208C163.79 501.533 164.055 500.893 164.489 500.372C164.922 499.852 165.505 499.476 166.158 499.295L177.601 496.13L197.171 485.849L197.186 485.923C197.552 487.776 198.119 490.576 198.192 490.746C200.199 493.046 202.261 494.103 204.32 493.895C207.913 493.531 210.301 489.385 210.324 489.342L210.342 489.31L210.378 489.314C210.743 489.329 211.1 489.428 211.421 489.603C211.741 489.778 212.017 490.024 212.228 490.323C213.047 491.558 212.547 493.46 212.465 493.747C213.446 494.706 213.887 500.068 213.92 500.5C215.34 502.004 216.013 503.449 215.925 504.797C215.849 505.445 215.636 506.07 215.301 506.63C214.967 507.19 214.517 507.673 213.982 508.048C212.482 509.241 210.619 509.886 208.701 509.875V509.871Z" fill="#090814"/>
<path d="M309.666 487.757L296.077 491.709L290.867 473.805L304.455 469.853L309.666 487.757Z" fill="#ED9DA0"/>
<path d="M310.938 500.787L282.054 509.187C279.57 509.906 276.956 510.06 274.404 509.639L268.334 508.629C267.666 508.517 267.047 508.204 266.562 507.732C266.076 507.26 265.746 506.65 265.616 505.986C265.485 505.321 265.561 504.632 265.832 504.012C266.104 503.391 266.558 502.868 267.135 502.512L277.235 496.279L293.157 480.941L293.192 481.005C294.058 482.682 295.39 485.212 295.504 485.355C298.074 487.002 300.349 487.443 302.269 486.668C305.616 485.316 306.75 480.667 306.761 480.62L306.77 480.585L306.806 480.578C307.161 480.491 307.531 480.486 307.887 480.564C308.244 480.642 308.578 480.802 308.863 481.029C309.996 481.988 310.047 483.953 310.048 484.252C311.259 484.899 313.18 489.923 313.333 490.329C315.116 491.376 316.167 492.576 316.457 493.894C316.565 494.538 316.535 495.197 316.37 495.828C316.205 496.46 315.908 497.049 315.498 497.557C314.391 499.122 312.782 500.262 310.938 500.787Z" fill="#090814"/>
<path d="M264.153 143.265C264.152 139.014 262.973 134.847 260.746 131.225C258.519 127.604 255.331 124.67 251.538 122.75C247.744 120.83 243.492 119.999 239.254 120.349C235.016 120.699 230.958 122.216 227.53 124.731C224.102 127.247 221.439 130.664 219.836 134.601C218.234 138.538 217.754 142.843 218.45 147.036C219.147 151.23 220.992 155.149 223.782 158.357C226.571 161.565 230.196 163.938 234.252 165.212L238.7 194.595L261.373 175.707C258.281 171.641 255.749 167.178 253.845 162.438C257.014 160.343 259.613 157.495 261.411 154.149C263.209 150.803 264.15 147.064 264.148 143.266L264.153 143.265Z" fill="#ED9DA0"/>
<path d="M273.232 256.777L276.553 210.298C276.841 206.267 276.332 202.219 275.053 198.386L265.209 168.871L236.22 178.179L223.988 206.154L217.326 218.364C215.849 221.07 215.289 224.181 215.728 227.233C216.168 230.284 217.584 233.111 219.764 235.29L223.988 239.513L218.101 261.097L218.72 261.076L217.889 261.183C217.889 261.183 178.53 379.551 179.942 480.217H230.463L233.46 363.362L242.236 484.753L308.809 480.918L273.235 256.777H273.232Z" fill="#FCFDFD"/>
<path d="M271.54 173.482C271.54 173.482 270.465 181.63 260.512 181.897L240.321 182.437C240.321 182.437 257.39 140.913 250.369 145.591C243.349 150.268 224.636 130.657 224.636 130.657L219.114 141.01C219.114 141.01 205.924 136.234 220.542 124.539C220.542 124.539 237.987 111.055 256.508 119.153C275.029 127.252 271.54 173.482 271.54 173.482Z" fill="#090814"/>
<path d="M189.888 265.94C189.622 260.75 194.485 256.283 200.756 255.958C202.391 255.843 204.032 256.055 205.584 256.581C207.136 257.107 208.567 257.936 209.795 259.021L209.938 259.014L247.114 255.166L244.326 218.281C243.294 211.146 245.297 203.956 252.326 202.34C254.362 201.872 256.478 201.87 258.516 202.334C260.553 202.799 262.459 203.718 264.091 205.022C265.723 206.327 267.038 207.984 267.939 209.869C268.84 211.754 269.303 213.818 269.294 215.907L269.081 262.366C269.074 263.936 268.757 265.489 268.149 266.936C267.541 268.383 266.654 269.697 265.538 270.801C264.421 271.905 263.098 272.778 261.644 273.37C260.19 273.963 258.633 274.262 257.062 274.252L210.406 270.767C209.297 271.973 207.958 272.946 206.469 273.629C204.979 274.313 203.369 274.693 201.731 274.748C195.459 275.072 190.157 271.127 189.889 265.939L189.888 265.94Z" fill="#ED9DA0"/>
<path d="M240.749 201.999L242.987 244.077L274.102 241.969L268.599 198.204" fill="#FCFDFD"/>
<path d="M125.701 510.741L354.535 510.997C354.801 510.997 355.056 510.891 355.245 510.703C355.433 510.515 355.538 510.26 355.538 509.994C355.538 509.729 355.433 509.474 355.245 509.286C355.056 509.098 354.801 508.992 354.535 508.992L125.701 508.736C125.436 508.736 125.18 508.842 124.992 509.03C124.804 509.218 124.699 509.473 124.699 509.739C124.699 510.005 124.804 510.26 124.992 510.448C125.18 510.636 125.436 510.741 125.701 510.741Z" fill="#FCFDFD"/>
<path d="M55.8788 125.943L112.774 140.589C114.704 141.083 116.751 140.792 118.467 139.78C120.183 138.767 121.426 137.115 121.925 135.187L139.13 68.3931C139.625 66.4639 139.334 64.4172 138.321 62.7022C137.308 60.9872 135.656 59.7438 133.727 59.245L80.7951 45.6197L67.2483 51.6824L50.4757 116.797C49.9815 118.726 50.2729 120.772 51.2858 122.487C52.2987 124.201 53.9504 125.445 55.8788 125.943Z" fill="#FCFDFD"/>
<path d="M133.184 61.3399C134.558 61.695 135.734 62.5803 136.455 63.8015C137.177 65.0226 137.384 66.48 137.032 67.8538L119.826 134.648C119.471 136.021 118.585 137.197 117.363 137.918C116.142 138.639 114.684 138.846 113.31 138.494L56.4145 123.847C55.0411 123.491 53.8647 122.606 53.1433 121.385C52.422 120.164 52.2146 118.707 52.5667 117.333L69.0804 53.2289L80.9869 47.903L133.184 61.3399Z" fill="white"/>
<path d="M67.3908 52.0288L76.1981 54.2955C76.5164 54.3778 76.8478 54.3964 77.1733 54.3505C77.4989 54.3046 77.8121 54.1949 78.0952 54.0278C78.3783 53.8608 78.6257 53.6395 78.8232 53.3768C79.0207 53.114 79.1644 52.8149 79.2462 52.4966L80.9204 45.9955C80.928 45.9667 80.9273 45.9364 80.9183 45.908C80.9093 45.8797 80.8924 45.8545 80.8696 45.8353C80.8468 45.8162 80.819 45.804 80.7895 45.8001C80.76 45.7962 80.73 45.8008 80.7031 45.8133L67.3666 51.7342C67.3369 51.7474 67.312 51.7695 67.2955 51.7974C67.2789 51.8254 67.2714 51.8577 67.2741 51.8901C67.2767 51.9225 67.2894 51.9532 67.3103 51.9781C67.3312 52.0029 67.3594 52.0206 67.3908 52.0288Z" fill="#FCFDFD"/>
<path d="M72.023 109.068L97.9257 115.736C98.2471 115.819 98.5882 115.771 98.8739 115.602C99.1597 115.433 99.3667 115.158 99.4494 114.837C99.5322 114.516 99.4839 114.175 99.3151 113.889C99.1464 113.603 98.871 113.396 98.5497 113.314L72.6495 106.645C72.4888 106.599 72.3205 106.586 72.1546 106.606C71.9886 106.626 71.8284 106.679 71.6833 106.762C71.5382 106.845 71.4113 106.957 71.3099 107.09C71.2086 107.223 71.1349 107.374 71.0932 107.536C71.0515 107.698 71.0427 107.867 71.0673 108.032C71.0918 108.197 71.1492 108.356 71.2361 108.499C71.3231 108.641 71.4377 108.765 71.5733 108.863C71.7089 108.961 71.8627 109.03 72.0256 109.068H72.023Z" fill="#CCCCCC"/>
<path d="M65.971 111.869L96.8722 119.824C97.1936 119.907 97.5346 119.859 97.8204 119.69C98.1061 119.521 98.3132 119.246 98.3959 118.925C98.4786 118.604 98.4303 118.263 98.2616 117.977C98.0928 117.691 97.8175 117.484 97.4961 117.402L66.595 109.447C66.4359 109.406 66.2702 109.397 66.1075 109.42C65.9448 109.443 65.7883 109.498 65.6468 109.581C65.5053 109.665 65.3816 109.775 65.2829 109.906C65.1841 110.038 65.1122 110.187 65.0712 110.346C65.0303 110.505 65.0211 110.671 65.0441 110.834C65.0672 110.996 65.122 111.153 65.2056 111.294C65.2891 111.436 65.3997 111.559 65.5311 111.658C65.6624 111.757 65.8119 111.829 65.971 111.869Z" fill="#CCCCCC"/>
<path d="M108.498 123.766C106.056 123.766 104.075 121.787 104.075 119.345C104.075 116.903 106.056 114.924 108.498 114.924C110.94 114.924 112.92 116.903 112.92 119.345C112.92 121.787 110.94 123.766 108.498 123.766Z" fill="#FCC3CD"/>
<path d="M74.7764 97.4971L109.179 106.35C110.173 106.604 111.228 106.454 112.111 105.933C112.995 105.411 113.635 104.56 113.892 103.567L121.101 75.5697C121.355 74.5762 121.205 73.5225 120.683 72.6396C120.161 71.7567 119.31 71.1167 118.317 70.8599L83.9161 62.0077C82.9219 61.7531 81.8673 61.9032 80.9837 62.425C80.1001 62.9467 79.4596 63.7975 79.2027 64.7908L71.9936 92.7872C71.7397 93.7805 71.8901 94.8339 72.4117 95.7166C72.9333 96.5993 73.7836 97.2393 74.7764 97.4964V97.4971Z" fill="white"/>
<path d="M74.7764 97.4971L109.179 106.35C110.173 106.604 111.228 106.454 112.111 105.933C112.995 105.411 113.635 104.56 113.892 103.567L121.101 75.5697C121.355 74.5762 121.205 73.5225 120.683 72.6396C120.161 71.7567 119.31 71.1167 118.317 70.8599L83.9161 62.0077C82.9219 61.7531 81.8673 61.9032 80.9837 62.425C80.1001 62.9467 79.4596 63.7975 79.2027 64.7908L71.9936 92.7872C71.7397 93.7805 71.8901 94.8339 72.4117 95.7166C72.9333 96.5993 73.7836 97.2393 74.7764 97.4964V97.4971ZM118.203 71.3008C119.08 71.5275 119.831 72.0927 120.292 72.8723C120.752 73.6519 120.884 74.5823 120.659 75.4592L113.45 103.456C113.223 104.332 112.658 105.083 111.878 105.543C111.098 106.003 110.167 106.135 109.29 105.91L74.8908 97.0561C74.0141 96.8293 73.2633 96.264 72.803 95.4845C72.3426 94.7049 72.2104 93.7747 72.4354 92.8978L79.6438 64.9013C79.8707 64.0249 80.4361 63.2743 81.2159 62.8142C81.9958 62.354 82.9264 62.2219 83.8036 62.4467L118.203 71.3008Z" fill="#FCFDFD"/>
<path d="M85.6625 71.419L103.024 75.8867C103.176 75.9291 103.338 75.9125 103.478 75.84C103.618 75.7675 103.725 75.6446 103.778 75.4962C103.802 75.4186 103.811 75.3367 103.803 75.2556C103.795 75.1746 103.77 75.096 103.731 75.0247C103.691 74.9534 103.638 74.891 103.573 74.8412C103.509 74.7914 103.435 74.7553 103.356 74.7351L85.6824 70.187C84.9683 70.5487 85.1569 71.288 85.6625 71.4184V71.419Z" fill="#FEFFFF"/>
<path d="M84.8794 74.4641L102.241 78.9318C102.393 78.9742 102.555 78.9574 102.695 78.8848C102.835 78.8122 102.942 78.6892 102.995 78.5407C103.019 78.4631 103.028 78.3812 103.02 78.3001C103.012 78.219 102.988 78.1403 102.948 78.069C102.908 77.9977 102.855 77.9353 102.79 77.8855C102.726 77.8357 102.652 77.7997 102.573 77.7796L84.8993 73.2314C84.1852 73.5931 84.3731 74.3325 84.8794 74.4629V74.4641Z" fill="#FEFFFF"/>
<path d="M105.548 81.628L110.847 82.9911C111.02 83.0355 111.203 83.0095 111.357 82.9186C111.511 82.8278 111.622 82.6796 111.667 82.5067L113.277 76.2567C113.321 76.0837 113.295 75.9002 113.204 75.7465C113.113 75.5927 112.965 75.4813 112.792 75.4368L107.493 74.0731C107.32 74.0288 107.137 74.0549 106.983 74.1457C106.829 74.2366 106.718 74.3846 106.673 74.5575L105.063 80.8074C105.019 80.9804 105.045 81.1639 105.136 81.3177C105.227 81.4714 105.375 81.5834 105.548 81.628Z" fill="#FCC3CD"/>
<path d="M83.3235 80.7084L109.821 87.5271C109.972 87.5696 110.135 87.5529 110.274 87.4804C110.414 87.4079 110.522 87.2851 110.574 87.1367C110.599 87.059 110.608 86.9771 110.6 86.896C110.592 86.8149 110.567 86.7363 110.528 86.665C110.488 86.5937 110.435 86.5312 110.37 86.4815C110.306 86.4317 110.231 86.3956 110.152 86.3755L83.3433 79.4769C82.6292 79.8386 82.8172 80.578 83.3235 80.7084Z" fill="#FEFFFF"/>
<path d="M82.5391 83.7548L109.037 90.5735C109.189 90.616 109.351 90.5993 109.491 90.5268C109.631 90.4543 109.738 90.3315 109.791 90.183C109.815 90.1054 109.824 90.0235 109.816 89.9424C109.808 89.8614 109.783 89.7828 109.744 89.7115C109.704 89.6402 109.651 89.5778 109.586 89.528C109.522 89.4782 109.448 89.4421 109.369 89.4219L82.5576 82.5233C81.8436 82.885 82.0315 83.6244 82.5378 83.7548H82.5391Z" fill="#FEFFFF"/>
<path d="M81.7559 86.7979L108.253 93.6167C108.405 93.6591 108.567 93.6424 108.707 93.5699C108.847 93.4975 108.954 93.3746 109.007 93.2262C109.032 93.1486 109.04 93.0667 109.032 92.9856C109.024 92.9045 109 92.8259 108.96 92.7547C108.921 92.6834 108.867 92.6209 108.802 92.5711C108.738 92.5213 108.664 92.4853 108.585 92.4651L81.7758 85.5665C81.0617 85.9282 81.2522 86.6676 81.7559 86.7979Z" fill="#FEFFFF"/>
<path d="M80.9716 89.8431L107.469 96.6644C107.621 96.7068 107.783 96.6901 107.923 96.6176C108.063 96.5452 108.17 96.4223 108.222 96.2739C108.247 96.1963 108.256 96.1144 108.248 96.0333C108.24 95.9522 108.215 95.8736 108.176 95.8024C108.136 95.7311 108.083 95.6687 108.018 95.6189C107.954 95.5691 107.88 95.533 107.801 95.5128L80.9908 88.6122C80.2767 88.9733 80.4653 89.7127 80.9716 89.8431Z" fill="#FEFFFF"/>
<path d="M80.1878 92.8894L106.685 99.7081C106.837 99.7506 106.999 99.7339 107.139 99.6614C107.279 99.5889 107.386 99.4661 107.439 99.3177C107.464 99.2401 107.472 99.1582 107.464 99.077C107.456 98.9959 107.432 98.9173 107.392 98.846C107.353 98.7747 107.299 98.7123 107.234 98.6625C107.17 98.6127 107.096 98.5767 107.017 98.5566L80.2076 91.658C79.4942 92.0171 79.6815 92.7616 80.1878 92.8894Z" fill="#FEFFFF"/>
<path d="M108.171 120.895C108.268 120.921 108.37 120.914 108.462 120.876H108.467L109.672 120.364C109.782 120.314 109.867 120.223 109.911 120.111C109.954 119.999 109.952 119.874 109.905 119.764C109.858 119.653 109.769 119.565 109.658 119.518C109.547 119.472 109.423 119.47 109.311 119.514L108.53 119.847L107.507 117.441C107.483 117.385 107.449 117.334 107.406 117.292C107.362 117.249 107.311 117.216 107.255 117.193C107.199 117.171 107.139 117.159 107.078 117.16C107.017 117.16 106.958 117.173 106.902 117.197L106.908 117.213L106.901 117.197C106.789 117.245 106.7 117.335 106.654 117.449C106.608 117.562 106.609 117.689 106.657 117.802L107.861 120.628C107.889 120.693 107.931 120.751 107.985 120.797C108.039 120.843 108.103 120.876 108.171 120.894V120.895Z" fill="white"/>
<path d="M23.408 143.515L81.0767 132.31C83.032 131.928 84.7559 130.786 85.8699 129.134C86.984 127.483 87.3972 125.457 87.019 123.502L73.8529 55.7957C73.4706 53.8411 72.3282 52.1178 70.6765 51.004C69.0248 49.8903 66.9986 49.477 65.0425 49.8548L11.3899 60.2795L1.76344 71.5716L14.5981 137.573C14.9803 139.528 16.1226 141.251 17.7744 142.365C19.4261 143.479 21.4518 143.893 23.408 143.515Z" fill="#FCFDFD"/>
<path d="M65.4553 51.9777C66.8483 51.7086 68.2912 52.0029 69.4674 52.796C70.6437 53.5892 71.4572 54.8164 71.7294 56.2084L84.8956 123.915C85.1649 125.308 84.8705 126.75 84.0772 127.926C83.2838 129.102 82.0563 129.915 80.6639 130.187L22.9952 141.392C21.6022 141.661 20.1593 141.367 18.9831 140.574C17.8068 139.78 16.9934 138.553 16.7211 137.161L4.08518 72.1817L12.547 62.2578L65.4553 51.9777Z" fill="white"/>
<path d="M22.8303 80.6896L49.0885 75.5874C49.414 75.5242 49.7011 75.3342 49.8865 75.0594C50.072 74.7845 50.1406 74.4473 50.0773 74.1218C50.014 73.7964 49.824 73.5094 49.5491 73.324C49.2742 73.1386 48.9368 73.0699 48.6113 73.1332L22.3531 78.2354C22.0275 78.2986 21.7405 78.4886 21.555 78.7634C21.3696 79.0383 21.301 79.3756 21.3642 79.701C21.4275 80.0265 21.6175 80.3135 21.8925 80.4989C22.1674 80.6843 22.5048 80.7529 22.8303 80.6896Z" fill="#FCC3CD"/>
<path d="M18.5707 85.8179L49.8943 79.7315C50.2198 79.6682 50.5069 79.4783 50.6923 79.2034C50.8778 78.9286 50.9464 78.5913 50.8831 78.2659C50.8198 77.9404 50.6298 77.6534 50.3549 77.468C50.0799 77.2826 49.7426 77.214 49.4171 77.2772L18.0934 83.3637C17.7679 83.427 17.4808 83.6169 17.2954 83.8918C17.11 84.1666 17.0413 84.5039 17.1046 84.8293C17.1679 85.1548 17.3579 85.4418 17.6329 85.6272C17.9078 85.8126 18.2451 85.8812 18.5707 85.8179Z" fill="#FCC3CD"/>
<path d="M25.9636 96.8072L52.2218 91.705C52.5474 91.6417 52.8847 91.7104 53.1597 91.8958C53.4346 92.0812 53.6246 92.3682 53.6879 92.6936C53.7512 93.0191 53.6826 93.3563 53.4971 93.6312C53.3117 93.906 53.0246 94.096 52.6991 94.1592L26.4409 99.2614C26.1153 99.3247 25.778 99.2561 25.503 99.0707C25.2281 98.8853 25.0381 98.5983 24.9748 98.2728C24.9115 97.9474 24.9801 97.6101 25.1656 97.3353C25.351 97.0604 25.6381 96.8704 25.9636 96.8072Z" fill="#CCCCCC"/>
<path d="M21.7043 101.937L53.0279 95.8503C53.3534 95.787 53.6908 95.8556 53.9657 96.041C54.2406 96.2264 54.4306 96.5134 54.4939 96.8389C54.5572 97.1643 54.4886 97.5016 54.3031 97.7764C54.1177 98.0513 53.8306 98.2413 53.5051 98.3045L22.1815 104.391C21.856 104.454 21.5186 104.386 21.2437 104.2C20.9687 104.015 20.7787 103.728 20.7154 103.402C20.6521 103.077 20.7208 102.74 20.9062 102.465C21.0917 102.19 21.3787 102 21.7043 101.937Z" fill="#CCCCCC"/>
<path d="M30.053 117.835L56.3113 112.733C56.6368 112.669 56.9239 112.479 57.1093 112.205C57.2947 111.93 57.3634 111.592 57.3001 111.267C57.2368 110.942 57.0468 110.655 56.7718 110.469C56.4969 110.284 56.1596 110.215 55.834 110.278L29.5758 115.381C29.2503 115.444 28.9632 115.634 28.7778 115.909C28.5923 116.184 28.5237 116.521 28.587 116.846C28.6503 117.172 28.8403 117.459 29.1152 117.644C29.3902 117.829 29.7275 117.898 30.053 117.835Z" fill="#CCCCCC"/>
<path d="M25.7936 122.964L57.1172 116.877C57.4427 116.814 57.7298 116.624 57.9152 116.349C58.1006 116.074 58.1693 115.737 58.106 115.412C58.0427 115.086 57.8527 114.799 57.5778 114.614C57.3028 114.428 56.9655 114.36 56.6399 114.423L25.3163 120.51C24.9908 120.573 24.7037 120.763 24.5183 121.038C24.3328 121.312 24.2642 121.65 24.3275 121.975C24.3908 122.301 24.5808 122.588 24.8557 122.773C25.1307 122.958 25.468 123.027 25.7936 122.964Z" fill="#CCCCCC"/>
<path d="M61.0303 78.6482C58.6327 79.114 56.3113 77.5487 55.8452 75.1518C55.3791 72.755 56.9448 70.4343 59.3424 69.9685C61.74 69.5026 64.0614 71.068 64.5275 73.4648C64.9936 75.8617 63.4278 78.1823 61.0303 78.6482Z" fill="#FCC3CD"/>
<path d="M60.9375 75.8804C61.0353 75.8615 61.1243 75.8113 61.191 75.7374L61.1953 75.7327L62.064 74.7547C62.1068 74.7097 62.1401 74.6566 62.1619 74.5985C62.1837 74.5404 62.1936 74.4785 62.191 74.4165C62.1883 74.3545 62.1732 74.2936 62.1465 74.2376C62.1198 74.1815 62.0821 74.1314 62.0357 74.0903C61.9892 74.0491 61.9349 74.0178 61.876 73.998C61.8172 73.9783 61.7549 73.9707 61.693 73.9755C61.6311 73.9804 61.5709 73.9976 61.5158 74.0263C61.4607 74.055 61.412 74.0944 61.3725 74.1423L60.8097 74.7777L58.8549 73.0443C58.8095 73.0037 58.7564 72.9725 58.6988 72.9525C58.6412 72.9325 58.5802 72.9241 58.5193 72.9278C58.4585 72.9315 58.399 72.9473 58.3442 72.9741C58.2895 73.001 58.2406 73.0384 58.2004 73.0842L58.2136 73.0953L58.1985 73.0846C58.1174 73.1763 58.0759 73.2964 58.0834 73.4186C58.0908 73.5409 58.1464 73.6551 58.238 73.7364L60.5429 75.7735C60.5962 75.8204 60.6595 75.8543 60.7281 75.8727C60.7966 75.8911 60.8684 75.8935 60.938 75.8797L60.9375 75.8804Z" fill="white"/>
<path d="M59.0098 93.8116C59.1204 94.3817 59.3423 94.9244 59.6627 95.4087C59.9831 95.8931 60.3959 96.3096 60.8774 96.6344C61.3588 96.9593 61.8996 97.1862 62.4688 97.3021C63.038 97.418 63.6244 97.4207 64.1946 97.3099C64.2321 97.3035 64.2691 97.2948 64.3055 97.2838C65.1546 97.0956 65.9293 96.6611 66.5327 96.035C67.1361 95.4088 67.5414 94.6186 67.6979 93.7633C67.8544 92.908 67.7551 92.0255 67.4125 91.2263C67.0699 90.4271 66.4992 89.7467 65.7717 89.27C65.0442 88.7934 64.1923 88.5418 63.3226 88.5467C62.4528 88.5516 61.6038 88.8128 60.8818 89.2976C60.1598 89.7823 59.5968 90.4692 59.2633 91.2722C58.9298 92.0752 58.8405 92.9587 59.0067 93.8122L59.0098 93.8116Z" fill="#FCC3CD"/>
<path d="M68.253 115.793C65.8554 116.259 63.534 114.694 63.0679 112.297C62.6018 109.9 64.1676 107.58 66.5652 107.114C68.9627 106.648 71.2841 108.213 71.7502 110.61C72.2163 113.007 70.6506 115.328 68.253 115.793Z" fill="#FCC3CD"/>
<path d="M2.04181 71.8221L10.9689 70.0875C11.62 69.961 12.1941 69.5811 12.565 69.0315C12.9358 68.4818 13.0731 67.8073 12.9465 67.1564L11.6648 60.5651C11.6595 60.5358 11.6459 60.5085 11.6257 60.4866C11.6054 60.4648 11.5794 60.4491 11.5505 60.4415C11.5217 60.4339 11.4913 60.4347 11.4629 60.4438C11.4345 60.4529 11.4093 60.4699 11.3902 60.4928L1.893 71.5658C1.87211 71.5905 1.85938 71.6211 1.85656 71.6533C1.85374 71.6855 1.86097 71.7178 1.87725 71.7457C1.89353 71.7737 1.91807 71.7959 1.94749 71.8093C1.97692 71.8228 2.00978 71.8268 2.04157 71.8208L2.04181 71.8221Z" fill="#FCFDFD"/>
<path d="M167.551 0H299.193C301.311 0 303.029 1.71669 303.029 3.83434V73.5989C303.029 75.7165 301.311 77.4332 299.193 77.4332H167.551C165.433 77.4332 163.716 75.7165 163.716 73.5989V3.83434C163.716 1.71669 165.433 0 167.551 0Z" fill="#FCFDFD"/>
<path d="M168.543 2.69553H298.06C299.472 2.69553 300.617 3.83999 300.617 5.25175V72.3252C300.617 73.737 299.472 74.8815 298.06 74.8815H168.543C167.131 74.8815 165.986 73.737 165.986 72.3252V5.25175C165.986 3.83999 167.131 2.69553 168.543 2.69553Z" fill="white"/>
<path d="M184.21 62.6506H282.534C282.616 62.6506 282.694 62.6182 282.752 62.5606C282.809 62.5029 282.842 62.4247 282.842 62.3432V15.2319C282.842 15.1503 282.809 15.0721 282.752 15.0143C282.694 14.9566 282.616 14.9242 282.534 14.9242C282.452 14.9242 282.374 14.9566 282.316 15.0143C282.259 15.0721 282.226 15.1503 282.226 15.2319V62.0358H184.21C184.128 62.0358 184.05 62.0682 183.992 62.1259C183.934 62.1836 183.902 62.2619 183.902 62.3435C183.902 62.4251 183.934 62.5034 183.992 62.5611C184.05 62.6188 184.128 62.6512 184.21 62.6512V62.6506Z" fill="#3F3D56"/>
<path d="M261.526 59.2668H270.47C270.712 59.2664 270.944 59.1701 271.115 58.9989C271.287 58.8277 271.383 58.5956 271.383 58.3536V46.03C271.383 45.7879 271.287 45.5558 271.115 45.3846C270.944 45.2134 270.712 45.1171 270.47 45.1168H261.527C261.285 45.1169 261.053 45.2132 260.881 45.3844C260.71 45.5557 260.614 45.7878 260.614 46.03V58.3536C260.614 58.5957 260.71 58.8279 260.881 58.9991C261.053 59.1703 261.284 59.2666 261.526 59.2668Z" fill="#FCC3CD"/>
<path d="M245.219 59.2674H254.162C254.404 59.2671 254.636 59.1708 254.808 58.9996C254.979 58.8284 255.075 58.5963 255.076 58.3542V34.3404C255.075 34.0983 254.979 33.8662 254.808 33.695C254.636 33.5238 254.404 33.4275 254.162 33.4272H245.219C244.977 33.4273 244.745 33.5236 244.573 33.6948C244.402 33.866 244.306 34.0982 244.306 34.3404V58.3529C244.306 58.5951 244.402 58.8272 244.573 58.9985C244.745 59.1697 244.977 59.266 245.219 59.2661L245.219 59.2674Z" fill="#FCC3CD"/>
<path d="M228.909 59.2668H237.853C238.095 59.2664 238.327 59.1701 238.498 58.9989C238.67 58.8277 238.766 58.5956 238.766 58.3536V46.03C238.766 45.7879 238.67 45.5558 238.498 45.3846C238.327 45.2134 238.095 45.1171 237.853 45.1168H228.91C228.668 45.1169 228.436 45.2132 228.264 45.3844C228.093 45.5557 227.997 45.7878 227.997 46.03V58.3536C227.997 58.5957 228.093 58.8279 228.264 58.9991C228.436 59.1703 228.668 59.2666 228.91 59.2668H228.909Z" fill="#FCC3CD"/>
<path d="M212.6 59.2661H221.544C221.78 59.2711 222.009 59.1822 222.181 59.0188C222.352 58.8555 222.451 58.631 222.457 58.3945V29.6842C222.451 29.4477 222.352 29.2232 222.181 29.0598C222.009 28.8965 221.78 28.8075 221.544 28.8125H212.601C212.364 28.8075 212.135 28.8965 211.964 29.0598C211.793 29.2232 211.694 29.4477 211.687 29.6842V58.397C211.694 58.6334 211.793 58.8578 211.964 59.0212C212.135 59.1845 212.364 59.2735 212.6 59.2687V59.2661Z" fill="#FCC3CD"/>
<path d="M196.294 59.268H205.237C205.479 59.2679 205.712 59.1716 205.883 59.0004C206.054 58.8292 206.151 58.597 206.151 58.3548V21.4225C206.151 21.1803 206.054 20.9481 205.883 20.7769C205.712 20.6057 205.479 20.5094 205.237 20.5092H196.294C196.052 20.5094 195.819 20.6057 195.648 20.7769C195.477 20.9481 195.38 21.1803 195.38 21.4225V58.3548C195.38 58.597 195.477 58.8292 195.648 59.0004C195.819 59.1716 196.052 59.2679 196.294 59.268Z" fill="#FCC3CD"/>
</g>
<defs>
<clipPath id="clip0_29_242">
<rect width="486" height="511" fill="white" transform="matrix(-1 0 0 1 486 0)"/>
</clipPath>
</defs>
</svg>
